<?xml version="1.0" encoding="UTF-8"?>
<svg xmlns="http://www.w3.org/2000/svg" id="_レイヤー_2" width="1200" height="360" viewBox="0 0 1200 360">
  <rect x="463.77" y="141.08" width="158.71" height="194.98" style="fill:#3264af; stroke-width:0px;"></rect>
  <rect x="645.22" y="141.08" width="158.71" height="194.98" style="fill:#0e954d; stroke-width:0px;"></rect>
  <rect x="826.69" y="141.08" width="158.71" height="194.98" style="fill:#f1b930; stroke-width:0px;"></rect>
  <rect x="1008.69" y="141.08" width="158.71" height="194.98" style="fill:#d3362a; stroke-width:0px;"></rect>
  <path d="m535.44,177.37c.63-.09,1.14-.21,1.65-.21,2.06,0,3.38,1.02,4.01,3.08.09.51.21,1.02.21,1.53,0,1.85-1.14,3.38-3.5,4.01-10.68,2.67-25.26,7.39-36.15,12.33-13.35,6.05-20.33,13.77-20.33,21.25,0,8.92,6.58,13.44,28.34,13.44,10.06,0,21.37-1.14,29.16-2.78.42-.09.81-.09,1.23-.09,2.27,0,3.8,1.34,4.1,3.71.09.42.09.72.09,1.14,0,2.16-1.44,3.89-3.89,4.43-7.9,1.74-19.1,2.46-31.13,2.46-25.17.09-36.76-6.88-36.76-22.39,0-10.36,8.62-20.44,23.41-27.63-3.08-9.25-5.54-19.93-7.49-30.29-.09-.3-.09-.63-.09-.93,0-2.25,1.65-3.59,3.71-4.01.42-.09.72-.09,1.14-.09,2.06,0,3.8,1.14,4.1,3.5,1.74,9.76,3.89,19.72,6.88,28.34,10.17-4.31,22.18-8.41,31.31-10.78v-.02Z" style="fill:#fff; stroke:#fff; stroke-miterlimit:10; stroke-width:11.91px;"></path>
  <path d="m605.01,247.76c.63-.09,1.14-.21,1.65-.21,2.06,0,3.38,1.02,4.01,3.08.09.51.21,1.02.21,1.55,0,1.85-1.14,3.38-3.5,4.01-10.68,2.67-25.26,7.39-36.15,12.33-13.35,6.05-20.33,13.77-20.33,21.25,0,8.92,6.58,13.44,28.34,13.44,10.06,0,21.37-1.14,29.16-2.78.42-.09.81-.09,1.23-.09,2.27,0,3.8,1.34,4.1,3.71.09.42.09.72.09,1.14,0,2.16-1.44,3.89-3.89,4.43-7.9,1.74-19.1,2.46-31.13,2.46-25.17.09-36.76-6.88-36.76-22.39,0-10.38,8.62-20.44,23.41-27.63-3.08-9.25-5.54-19.93-7.49-30.29-.09-.3-.09-.63-.09-.93,0-2.27,1.65-3.59,3.71-4.01.42-.09.72-.09,1.14-.09,2.06,0,3.8,1.14,4.1,3.5,1.74,9.76,3.89,19.72,6.88,28.34,10.17-4.31,22.18-8.41,31.31-10.78v-.05Z" style="fill:#fff; stroke:#fff; stroke-miterlimit:10; stroke-width:11.91px;"></path>
  <path d="m769.7,191.32c0,.7-.14,1.27-.28,1.97-5.65,24.01-15.11,44.61-29.8,61.42-16.39,18.77-38.98,32.33-60.58,38.12-1.14.28-2.11.42-2.97.42-2.69,0-4.38-1.41-5.21-4.38-.28-.86-.42-1.69-.42-2.41,0-2.69,1.55-4.8,4.38-5.65,20.19-5.65,40.4-18.36,55.34-35.16,12.14-13.7,21.46-33.47,26.54-55.07.86-3.52,2.83-5.21,5.65-5.21.7,0,1.55.14,2.41.28,3.38.86,4.94,2.97,4.94,5.65v.02Z" style="fill:#fff; stroke:#fff; stroke-miterlimit:10; stroke-width:17.87px;"></path>
  <path d="m962.57,278.49c3.38,0,5.21,2.25,5.21,5.79s-1.83,5.79-5.21,5.79h-110.99c-3.38,0-5.08-2.27-5.08-5.79s1.69-5.79,5.08-5.79h47.88v-71.87h-39.12c-3.52,0-5.21-2.27-5.21-5.79s1.69-5.79,5.21-5.79h93.05c3.38,0,5.21,2.25,5.21,5.79s-1.83,5.79-5.21,5.79h-41.37v71.87h50.55Z" style="fill:#fff; stroke:#fff; stroke-miterlimit:10; stroke-width:17.87px;"></path>
  <path d="m1052.82,188.36c0-3.52,2.41-5.79,6.07-5.79s6.21,2.11,6.21,5.93v30.5c0,22.74-2.83,39.26-7.76,50.83-4.94,11.01-11.87,20.19-19.91,26.12-1.69,1.41-3.52,1.97-5.21,1.97-1.83,0-3.66-.86-4.8-2.27-1.14-1.27-1.55-2.69-1.55-4.24,0-1.97,1-3.82,2.83-4.94,7.21-5.08,13.42-12.42,17.5-22.18,4.24-10.59,6.63-24.71,6.63-46.31v-29.64.02Zm36.99-1c0-3.52,2.25-5.65,6.07-5.65,3.52,0,6.21,2.11,6.21,5.65l-.56,90.36c0,2.55,1.14,3.96,3.52,3.96,1,0,2.41-.28,4.1-1,15.81-6.93,23.87-19.49,31.06-34.88,1.14-2.27,2.69-3.24,4.66-3.24,1,0,2.11.28,3.11.86,1.97.86,3.24,2.83,3.24,5.08,0,.7-.14,1.55-.56,2.55-8.62,21.32-25.84,38.68-42.51,42.78-2.55.56-4.8.86-6.77.86-7.9,0-12.14-4.52-12.14-13.56l.56-93.77h0Z" style="fill:#fff; stroke:#fff; stroke-miterlimit:10; stroke-width:17.87px;"></path>
  <g id="_レイヤー_1-2">
    <g style="opacity:.4;">
      <polygon points="329.23 113.48 213.46 44.34 97.7 113.48 50.87 141.44 50.87 336.66 376.05 336.66 376.05 141.44 329.23 113.48" style="fill:#172a88; stroke-width:0px;"></polygon>
    </g>
    <polygon points="338.05 104.46 222.28 35.33 106.52 104.46 59.69 132.43 59.69 327.65 384.87 327.65 384.87 132.43 338.05 104.46" style="fill:#fff; stroke-width:0px;"></polygon>
    <polyline points="413.03 149.24 358.09 116.44 222.28 35.33 86.47 116.44 31.54 149.25" style="fill:none; stroke:#172a88; stroke-miterlimit:10; stroke-width:10.28px;"></polyline>
    <path d="m226.67,109.33h31.14c0-17.2-13.94-31.14-31.14-31.14h0v31.14h0Z" style="fill:#172a88; stroke-width:0px;"></path>
    <path d="m186.75,109.33h31.14v-31.14h0c-17.2,0-31.14,13.94-31.14,31.14h0Z" style="fill:#172a88; stroke-width:0px;"></path>
    <path d="m226.67,149.25h0c17.2,0,31.14-13.94,31.14-31.14h-31.14v31.14h0Z" style="fill:#172a88; stroke-width:0px;"></path>
    <path d="m217.89,149.25h0v-31.14h-31.14c0,17.2,13.94,31.14,31.14,31.14Z" style="fill:#172a88; stroke-width:0px;"></path>
    <path d="m149.76,199.23c2.12,0,3.21,1.13,3.21,2.5,0,.85-.42,1.75-1.23,2.55-1.84,1.79-4.1,3.44-6.65,4.95,4.81,1.89,10.1,2.88,15.66,3.26.94.09,1.37.61,1.37,1.6v.33c-.09,1.08-.85,1.65-1.75,1.65h-.19c-7.03-.52-13.35-2.12-18.92-4.95-5.47,2.45-12.08,4.2-19.49,5.05h-.19c-.94,0-1.65-.57-1.84-1.65v-.28c0-.8.57-1.46,1.42-1.56,6.32-.52,11.89-1.79,16.56-3.59-2.41-1.6-4.62-3.44-6.61-5.52-2.59,2.12-5.52,3.92-8.35,5.24-.28.14-.57.19-.8.19-.66,0-1.27-.33-1.56-.9-.14-.24-.19-.52-.19-.8,0-.66.33-1.32.94-1.6,4.91-2.12,9.96-5.76,12.74-9.67-2.03-.42-2.26-1.23-2.26-2.64v-5.61c0-.9.71-1.32,1.7-1.32s1.7.47,1.7,1.32v4.48c0,1.13.33,1.42,6.42,1.42,4.81,0,5.52-.24,5.9-2.5.09-.75.61-1.13,1.37-1.13.19,0,.38,0,.57.05.85.19,1.51.71,1.51,1.51v.24c-.61,3.82-1.89,4.58-9.58,4.58-1.56,0-2.83,0-3.92-.05-.8,1.09-1.6,2.17-2.5,3.16,1.27-.19,2.59-.28,4.29-.28h10.66v-.03Zm-20.95-17.13c-.52-1.51-1.13-3.02-1.84-4.39h-3.4c-.94,0-1.56-.57-1.56-1.51,0-1.04.52-1.6,1.65-1.6,7.22,0,14.3-.19,20.67-.8,4.72-.47,9.06-1.09,12.41-1.93.24-.05.47-.09.71-.09.71,0,1.27.33,1.51,1.08.09.24.14.52.14.71,0,.8-.57,1.32-1.46,1.51-1.13.24-2.36.47-3.68.66.19.05.33.09.52.14.8.28,1.13.71,1.13,1.23,0,.24-.05.52-.19.75-.66,1.27-1.51,2.78-2.45,4.25h4.48c2.88,0,4.15,1.04,4.15,3.63v5.05c0,.99-.8,1.37-1.79,1.37s-1.89-.38-1.89-1.37v-4.48c0-.94-.47-1.23-1.37-1.23h-31.19c-.9,0-1.37.28-1.37,1.23v4.48c0,.99-.8,1.37-1.84,1.37s-1.84-.38-1.84-1.37v-5.05c0-2.59,1.27-3.63,4.15-3.63h4.35Zm1.04,7.36c0,.24-.05.52-.14.8-1.04,2.74-3.02,5.76-4.67,7.45-.42.47-.94.71-1.46.71-.47,0-.9-.19-1.32-.52-.33-.28-.47-.66-.47-1.04,0-.52.24-1.04.66-1.46,1.65-1.56,3.35-4.2,4.15-6.32.38-.94.9-1.27,1.46-1.27.24,0,.47.05.66.14.8.28,1.13.85,1.13,1.51h0Zm10.05-7.36c-.52-1.65-1.23-3.26-1.98-4.77-1.56.09-3.16.14-4.72.19-.9.05-1.79.05-2.69.09.71,1.46,1.37,2.97,1.89,4.48h7.5Zm-5.94,20c2.22,2.12,4.67,3.92,7.36,5.38,2.69-1.32,5-2.88,6.84-4.53.24-.19.33-.38.33-.52,0-.19-.24-.33-.71-.33h-13.82,0Zm10.71-12.74c.42.38.66.85.66,1.27,0,.33-.14.66-.38.99-.38.38-.85.61-1.37.61-.42,0-.85-.14-1.18-.42-1.13-.94-3.02-2.26-4.48-3.21-.42-.28-.61-.66-.61-1.08,0-.38.14-.71.38-.99.33-.38.8-.57,1.27-.57.38,0,.8.09,1.18.33,1.37.75,3.49,2.17,4.53,3.07h0Zm4.48-7.27c1.13-1.89,2.12-3.77,2.83-5.38.14-.33.38-.61.66-.75-2.36.33-4.95.66-7.78.9-1.13.09-2.26.19-3.44.28.75,1.6,1.46,3.26,1.98,4.95h5.76,0Zm3.26,5.43c.52,0,1.08.24,1.6.75,1.98,2.03,4.15,4.81,5.52,6.94.24.38.33.75.33,1.13,0,.57-.28,1.09-.8,1.42-.28.19-.61.28-.94.28-.61,0-1.23-.33-1.6-.99-1.32-2.03-3.3-4.77-5.24-6.75-.33-.38-.52-.8-.52-1.18,0-.47.24-.94.66-1.27.28-.24.66-.33.99-.33Z" style="fill:#231815; stroke:#231815; stroke-miterlimit:10; stroke-width:1.49px;"></path>
    <path d="m194.92,210.6c0,2.78-1.42,4.01-4.2,4.01h-9.67c-2.83,0-4.25-1.18-4.25-4.01v-11.75c0-2.83,1.42-4.01,4.25-4.01h9.72c2.78,0,4.15,1.13,4.15,3.92v11.84Zm-13.12-12.5c-.99,0-1.51.33-1.51,1.37v10.43c0,1.09.52,1.42,1.51,1.42h8.07c1.04,0,1.56-.33,1.56-1.42v-10.43c0-1.04-.52-1.37-1.56-1.37h-8.07Zm25.1-24.49c3.02,0,4.39,1.37,4.39,4.25v8.4c0,2.88-1.37,4.2-4.39,4.2h-18.97c-2.97,0-4.39-1.32-4.39-4.2v-8.4c0-2.88,1.42-4.25,4.39-4.25h18.97Zm-.61,13.54c.94,0,1.42-.33,1.42-1.32v-7.5c0-1.04-.47-1.37-1.42-1.37h-17.69c-.94,0-1.46.33-1.46,1.37v7.5c0,.99.52,1.32,1.46,1.32h17.69Zm11.7,23.45c0,2.83-1.42,4.01-4.25,4.01h-10.43c-2.78,0-4.2-1.23-4.2-4.01v-11.84c0-2.78,1.37-3.92,4.11-3.92h10.52c2.83,0,4.25,1.18,4.25,4.01v11.75h0Zm-13.82-12.5c-1.04,0-1.56.33-1.56,1.37v10.43c0,1.09.52,1.42,1.56,1.42h8.82c1.04,0,1.51-.33,1.51-1.42v-10.43c0-1.04-.47-1.37-1.51-1.37h-8.82Z" style="fill:#231815; stroke:#231815; stroke-miterlimit:10; stroke-width:1.49px;"></path>
    <path d="m233.66,177.58c-.75,0-1.18-.57-1.18-1.42,0-.8.42-1.32,1.18-1.32h8.68v-1.65c0-.85.47-1.13,1.46-1.13s1.51.28,1.51,1.13v1.65h8.87c.75,0,1.18.52,1.18,1.32,0,.85-.42,1.42-1.18,1.42h-8.87v2.45h5.24c2.31,0,3.26.85,3.26,2.97v2.92c0,2.12-.94,3.02-3.26,3.02h-3.63c1.7,1.75,3.54,2.93,5.33,3.82.47.24.75.71.75,1.23,0,.28-.09.57-.28.85-.28.47-.71.71-1.18.71-.28,0-.61-.09-.94-.33-1.93-1.32-3.87-3.02-5.61-5.14.19,1.13.38,2.41.38,3.49v2.83c0,.75-.57,1.18-1.56,1.18s-1.51-.42-1.51-1.18v-2.83c0-1.09.24-2.36.42-3.4-2.22,2.78-5.43,5.52-8.87,7.31-.19.14-.42.19-.66.19-.57,0-1.08-.33-1.42-.9-.14-.28-.24-.57-.24-.85,0-.57.28-.99.75-1.23,3.02-1.32,5.9-3.3,8.21-5.76h-3.35c-2.31,0-3.3-.9-3.3-3.02v-2.92c0-2.12.99-2.97,3.3-2.97h5.19v-2.45h-8.68,0Zm2.17,23.83c-.75,0-1.18-.52-1.18-1.42,0-.85.42-1.46,1.18-1.46h36.09c.8,0,1.18.57,1.18,1.46s-.38,1.42-1.18,1.42h-16.32v3.54h13.78c.71,0,1.08.61,1.08,1.37,0,.85-.38,1.46-1.08,1.46h-13.78v3.92h18.92c.8,0,1.27.52,1.27,1.46s-.47,1.51-1.27,1.51h-41.14c-.8,0-1.27-.57-1.27-1.51s.47-1.46,1.27-1.46h7.88v-6.46c0-.85.75-1.32,1.79-1.32s1.75.47,1.75,1.32v6.46h7.31v-10.29h-16.28Zm6.51-18.92h-4.39c-.75,0-1.13.19-1.13.94v2.22c0,.75.38.99,1.13.99h4.39v-4.15h0Zm7.36,4.15c.75,0,1.18-.24,1.18-.99v-2.22c0-.75-.42-.94-1.18-.94h-4.39v4.15h4.39Zm22.13-6.37c-1.04,3.44-2.64,6.84-5,9.58,2.26,1.93,4.86,3.4,7.74,4.48.8.24,1.18.8,1.18,1.51,0,.28-.05.52-.14.8-.24.71-.8,1.18-1.51,1.18-.24,0-.47-.05-.75-.14-3.58-1.56-6.46-3.35-8.82-5.52-2.36,2.12-5.19,3.77-8.35,5.1-.33.09-.71.19-.99.19-.61,0-1.13-.24-1.37-.85-.14-.33-.19-.61-.19-.85,0-.61.33-1.08.99-1.32,3.02-1.09,5.62-2.6,7.74-4.53-1.51-1.84-2.83-3.87-3.87-6.04-.57.85-1.18,1.7-1.89,2.5-.28.38-.66.57-1.04.57s-.8-.19-1.13-.57c-.38-.33-.52-.75-.52-1.13s.14-.75.47-1.13c2.78-3.11,4.81-7.41,5.9-10.95.19-.71.71-1.04,1.42-1.04.19,0,.42.05.66.09.8.19,1.23.66,1.23,1.23,0,.09,0,.24-.05.38-.38,1.04-.85,2.17-1.37,3.4h12.17c.8,0,1.27.66,1.27,1.51,0,.99-.47,1.56-1.27,1.56h-2.51Zm-11.18,0c-.09.19-.24.42-.33.61,1.04,2.45,2.5,4.72,4.25,6.7,1.79-2.17,2.97-4.67,3.82-7.31h-7.74Z" style="fill:#231815; stroke:#231815; stroke-miterlimit:10; stroke-width:1.49px;"></path>
    <path d="m289.95,178.14c-.85,0-1.32-.71-1.32-1.65,0-.99.47-1.65,1.32-1.65h12.79c.9,0,1.37.66,1.37,1.65s-.47,1.65-1.37,1.65h-4.62v10.71h3.87c.9,0,1.37.61,1.37,1.6s-.47,1.6-1.37,1.6h-3.87v11.51c1.27-.52,2.5-1.08,3.63-1.6.28-.14.57-.19.85-.19.52,0,.99.28,1.32.99.14.28.24.61.24.9,0,.57-.28,1.13-.9,1.42-3.87,1.84-8.68,3.68-12.69,4.95-.24.05-.47.09-.66.09-.71,0-1.27-.42-1.56-1.27-.05-.28-.09-.52-.09-.71,0-.75.42-1.37,1.13-1.56,1.75-.47,3.54-1.08,5.33-1.7v-12.83h-4.34c-.85,0-1.32-.66-1.32-1.6s.47-1.6,1.32-1.6h4.34v-10.71h-4.77Zm19.44,18.4c-2.64,0-4.01-1.04-4.01-3.87v-14.77c0-2.88,1.23-3.92,4.01-3.92h17.46c2.64,0,4.06.99,4.06,3.92v14.77c0,2.83-1.27,3.87-4.06,3.87h-7.31v4.91h10.38c.8,0,1.23.61,1.23,1.56s-.42,1.65-1.23,1.65h-10.38v6.28h12.08c.85,0,1.27.66,1.27,1.6s-.42,1.65-1.27,1.65h-28.78c-.85,0-1.27-.71-1.27-1.65s.42-1.6,1.27-1.6h13.3v-6.28h-9.72c-.85,0-1.27-.71-1.27-1.65s.42-1.56,1.27-1.56h9.72v-4.91h-6.75,0Zm.75-19.44c-.94,0-1.37.24-1.37,1.27v5.38h7.36v-6.65h-5.99Zm-1.37,9.67v5.38c0,.9.42,1.27,1.37,1.27h5.99v-6.65h-7.36Zm10.76-3.02h7.97v-5.38c0-.9-.42-1.27-1.37-1.27h-6.61v6.65h0Zm0,9.67h6.61c.94,0,1.37-.24,1.37-1.27v-5.38h-7.97v6.65h0Z" style="fill:#231815; stroke:#231815; stroke-miterlimit:10; stroke-width:1.49px;"></path>
    <rect x="69.09" y="235.23" width="68.48" height="84.13" style="fill:#3264af; stroke-width:0px;"></rect>
    <rect x="147.38" y="235.23" width="68.48" height="84.13" style="fill:#0e954d; stroke-width:0px;"></rect>
    <rect x="225.68" y="235.23" width="68.48" height="84.13" style="fill:#f1b930; stroke-width:0px;"></rect>
    <rect x="304.21" y="235.23" width="68.48" height="84.13" style="fill:#d3362a; stroke-width:0px;"></rect>
    <path d="m100.01,250.89c.27-.04.49-.09.71-.09.89,0,1.46.44,1.73,1.33.04.22.09.44.09.66,0,.8-.49,1.46-1.51,1.73-4.61,1.15-10.9,3.19-15.6,5.32-5.76,2.61-8.77,5.94-8.77,9.17,0,3.85,2.84,5.8,12.23,5.8,4.34,0,9.22-.49,12.58-1.2.18-.04.35-.04.53-.04.98,0,1.64.58,1.77,1.6.04.18.04.31.04.49,0,.93-.62,1.68-1.68,1.91-3.41.75-8.24,1.06-13.43,1.06-10.86.04-15.86-2.97-15.86-9.66,0-4.47,3.72-8.82,10.1-11.92-1.33-3.99-2.39-8.6-3.23-13.07-.04-.13-.04-.27-.04-.4,0-.97.71-1.55,1.6-1.73.18-.04.31-.04.49-.04.89,0,1.64.49,1.77,1.51.75,4.21,1.68,8.51,2.97,12.23,4.39-1.86,9.57-3.63,13.51-4.65h0Z" style="fill:#fff; stroke:#fff; stroke-miterlimit:10; stroke-width:5.14px;"></path>
    <path d="m130.03,281.26c.27-.04.49-.09.71-.09.89,0,1.46.44,1.73,1.33.04.22.09.44.09.67,0,.8-.49,1.46-1.51,1.73-4.61,1.15-10.9,3.19-15.6,5.32-5.76,2.61-8.77,5.94-8.77,9.17,0,3.85,2.84,5.8,12.23,5.8,4.34,0,9.22-.49,12.58-1.2.18-.04.35-.04.53-.04.98,0,1.64.58,1.77,1.6.04.18.04.31.04.49,0,.93-.62,1.68-1.68,1.91-3.41.75-8.24,1.06-13.43,1.06-10.86.04-15.86-2.97-15.86-9.66,0-4.48,3.72-8.82,10.1-11.92-1.33-3.99-2.39-8.6-3.23-13.07-.04-.13-.04-.27-.04-.4,0-.98.71-1.55,1.6-1.73.18-.04.31-.04.49-.04.89,0,1.64.49,1.77,1.51.75,4.21,1.68,8.51,2.97,12.23,4.39-1.86,9.57-3.63,13.51-4.65v-.02Z" style="fill:#fff; stroke:#fff; stroke-miterlimit:10; stroke-width:5.14px;"></path>
    <path d="m201.09,256.91c0,.3-.06.55-.12.85-2.44,10.36-6.52,19.25-12.86,26.5-7.07,8.1-16.82,13.95-26.14,16.45-.49.12-.91.18-1.28.18-1.16,0-1.89-.61-2.25-1.89-.12-.37-.18-.73-.18-1.04,0-1.16.67-2.07,1.89-2.44,8.71-2.44,17.43-7.92,23.88-15.17,5.24-5.91,9.26-14.44,11.45-23.76.37-1.52,1.22-2.25,2.44-2.25.3,0,.67.06,1.04.12,1.46.37,2.13,1.28,2.13,2.44h0Z" style="fill:#fff; stroke:#fff; stroke-miterlimit:10; stroke-width:7.71px;"></path>
    <path d="m284.31,294.52c1.46,0,2.25.97,2.25,2.5s-.79,2.5-2.25,2.5h-47.89c-1.46,0-2.19-.98-2.19-2.5s.73-2.5,2.19-2.5h20.66v-31.01h-16.88c-1.52,0-2.25-.98-2.25-2.5s.73-2.5,2.25-2.5h40.15c1.46,0,2.25.97,2.25,2.5s-.79,2.5-2.25,2.5h-17.85v31.01h21.81Z" style="fill:#fff; stroke:#fff; stroke-miterlimit:10; stroke-width:7.71px;"></path>
    <path d="m323.25,255.63c0-1.52,1.04-2.5,2.62-2.5s2.68.91,2.68,2.56v13.16c0,9.81-1.22,16.94-3.35,21.93-2.13,4.75-5.12,8.71-8.59,11.27-.73.61-1.52.85-2.25.85-.79,0-1.58-.37-2.07-.98-.49-.55-.67-1.16-.67-1.83,0-.85.43-1.65,1.22-2.13,3.11-2.19,5.79-5.36,7.55-9.57,1.83-4.57,2.86-10.66,2.86-19.98v-12.79h0Zm15.96-.43c0-1.52.97-2.44,2.62-2.44,1.52,0,2.68.91,2.68,2.44l-.24,38.99c0,1.1.49,1.71,1.52,1.71.43,0,1.04-.12,1.77-.43,6.82-2.99,10.3-8.41,13.4-15.05.49-.98,1.16-1.4,2.01-1.4.43,0,.91.12,1.34.37.85.37,1.4,1.22,1.4,2.19,0,.3-.06.67-.24,1.1-3.72,9.2-11.15,16.69-18.34,18.46-1.1.24-2.07.37-2.92.37-3.41,0-5.24-1.95-5.24-5.85l.24-40.46h0Z" style="fill:#fff; stroke:#fff; stroke-miterlimit:10; stroke-width:7.71px;"></path>
  </g>
  <path d="m489.5,80.75h31.57c3.67,0,5.53,1.85,5.53,5.53v14.93c0,3.67-1.85,5.53-5.53,5.53h-4.11c2.84,1.13,5.38,2.63,7.64,4.46.52.43.81,1.07.84,1.91,0,.58-.06,1.04-.2,1.42h2.4c1.94.06,2.95,1.07,3.04,3.04-.2,1.45-1.22,2.29-3.04,2.49h-31.51c-4.66,0-8.59-.46-11.75-1.33-3.39-.98-6.02-2.66-7.87-5.03-1.04,1.65-2.26,3.01-3.67,4.11-1.36,1.19-3.1,2.11-5.18,2.84-.43.2-.81.29-1.13.29-1.59-.23-2.52-.95-2.75-2.2.14-1.85.87-2.95,2.2-3.33,1.88-.67,3.53-1.71,4.95-3.13,1.71-1.42,2.55-2.98,2.55-4.69v-18.75c0-1.13-.58-1.71-1.71-1.71h-4.66c-1.65,0-2.49-.84-2.49-2.49,0-1.85.84-2.75,2.49-2.75h6.86c3.36,0,5.03,1.65,5.03,4.95v20.75c.81,2.08,2.37,3.67,4.75,4.8.69.29,1.45.55,2.2.78,0-1.36.72-2.4,2.2-3.13,1.1-.29,1.94-.55,2.55-.78.61-.17,1.19-.38,1.71-.58.75-.38,1.48-.75,2.11-1.13.95-.52,1.68-.81,2.2-.84,1.65.23,2.58,1.1,2.75,2.55,0,.81-.2,1.45-.58,1.91-.84.52-1.77,1.01-2.75,1.48-.81.43-1.77.84-2.89,1.27-.38.14-.78.29-1.22.43,1.22.09,2.49.14,3.82.14h23.58c-2.17-1.45-4.57-2.66-7.23-3.62-1.04-.2-1.59-1.01-1.71-2.49.09-.72.32-1.27.64-1.71h-21.67c-3.67,0-5.53-1.85-5.53-5.53v-14.93c0-3.67,1.85-5.53,5.53-5.53l.06.06Zm-21.59-21.59c.95,0,1.88.2,2.84.58,1.71,1.19,3.13,2.23,4.25,3.13,1.19.98,2.43,2.17,3.76,3.53.17.75.29,1.48.29,2.2-.2,1.65-1.1,2.58-2.75,2.75-1.22,0-2.14-.26-2.75-.78-1.22-1.22-2.37-2.29-3.47-3.18-1.04-.84-2.37-1.82-4.02-2.89-.58-1.1-.84-2-.84-2.75.38-1.36,1.3-2.23,2.75-2.55l-.06-.03Zm20.75-.78h13.6v-.29c.06-1.79.95-2.72,2.75-2.75,1.74.06,2.66.95,2.75,2.75v.29h14.38c3.15,0,4.75,1.56,4.75,4.66v3.91c0,3.13-1.59,4.69-4.75,4.69h-14.38v2.26h19.39c1.36.06,2.11.87,2.2,2.49-.09,1.36-.84,2.11-2.2,2.2h-43.46c-1.42-.09-2.14-.84-2.2-2.2.06-1.59.78-2.43,2.2-2.49h18.55v-2.26h-13.6c-3.13,0-4.69-1.56-4.69-4.69v-3.91c0-3.13,1.56-4.66,4.69-4.66h.03Zm13.6,8.57v-3.91h-11.6c-.75,0-1.13.38-1.13,1.13v1.62c0,.75.38,1.13,1.13,1.13h11.6v.03Zm-12.73,21.04h31.57v-.84c0-1.1-.58-1.62-1.71-1.62h-28.18c-1.13,0-1.71.55-1.71,1.62v.84h.03Zm0,6.86h31.57v-2.49h-31.57s0,2.49,0,2.49Zm29.86,7.23c1.13,0,1.71-.55,1.71-1.62v-1.13h-31.57v1.13c0,1.1.58,1.62,1.71,1.62h28.18-.03Zm.84-35.13c.75,0,1.13-.38,1.13-1.13v-1.62c0-.75-.38-1.13-1.13-1.13h-12.47v3.91h12.47v-.03Z" style="fill:#231815; stroke:#231815; stroke-miterlimit:10; stroke-width:1.04px;"></path>
  <path d="m542.89,86.83h17.42c3.67,0,5.53,1.85,5.53,5.53v21.59c0,3.67-1.85,5.53-5.53,5.53h-17.42c-3.67,0-5.53-1.85-5.53-5.53v-21.59c0-3.67,1.85-5.53,5.53-5.53Zm15.51,27.4c1.27,0,1.91-.64,1.91-1.91v-18.26c0-1.33-.64-2-1.91-2h-13.6c-1.27,0-1.91.67-1.91,2v18.26c0,1.27.64,1.91,1.91,1.91h13.6Zm-8.28-56.72h35.97c3.67,0,5.53,1.85,5.53,5.53v13.89c0,3.67-1.85,5.53-5.53,5.53h-35.97c-3.67,0-5.53-1.85-5.53-5.53v-13.89c0-3.67,1.85-5.53,5.53-5.53Zm33.97,19.62c1.33,0,2-.64,2-1.91v-10.48c0-1.33-.67-2-2-2h-32.06c-1.27,0-1.91.67-1.91,2v10.48c0,1.27.64,1.91,1.91,1.91h32.06Zm-8.85,9.69h18.26c3.67,0,5.53,1.85,5.53,5.53v21.59c0,3.67-1.85,5.53-5.53,5.53h-18.26c-3.67,0-5.53-1.85-5.53-5.53v-21.59c0-3.67,1.85-5.53,5.53-5.53Zm16.35,27.4c1.27,0,1.91-.64,1.91-1.91v-18.26c0-1.33-.64-2-1.91-2h-14.38c-1.33,0-2,.67-2,2v18.26c0,1.27.67,1.91,2,1.91h14.38Z" style="fill:#231815; stroke:#231815; stroke-miterlimit:10; stroke-width:1.04px;"></path>
  <path d="m636.33,60.3c1.59.09,2.46,1.01,2.55,2.75-.09,1.56-.95,2.37-2.55,2.49h-10.48v2.26h7.99c2.78,0,4.17,1.36,4.17,4.11v5.53c0,2.78-1.39,4.17-4.17,4.17h-7.58c3.73,1.36,6.63,2.66,8.71,3.91.69.72,1.1,1.45,1.13,2.2-.29,1.56-1.04,2.49-2.26,2.75-.61-.09-1.24-.38-1.91-.84-2.11-1.27-4.17-2.43-6.08-3.47v4.6c-.09,1.56-.93,2.37-2.49,2.49-1.79-.09-2.72-.93-2.75-2.49v-2.89c-.46.29-.95.58-1.48.84-2.31,1.48-5.06,2.89-8.22,4.25-1.1.2-1.91.29-2.49.29-1.5-.32-2.34-1.16-2.49-2.49,0-.98.55-1.91,1.62-2.75,3.15-1.27,5.7-2.46,7.64-3.53,1.42-.81,2.84-1.74,4.25-2.84h-6.66c-2.75,0-4.11-1.39-4.11-4.17v-5.53c0-2.75,1.36-4.11,4.11-4.11h7.78v-2.26h-11.11c-1.56-.09-2.37-.93-2.49-2.49.09-1.74.93-2.66,2.49-2.75h11.11v-1.91c.06-1.59.95-2.43,2.75-2.49,1.56.06,2.37.87,2.49,2.49v1.91h10.48l.03-.03Zm27.69,32.93c1.56.09,2.37,1.01,2.49,2.75-.09,1.56-.93,2.37-2.49,2.49h-22.66v6.08h18.55c1.56.09,2.37.93,2.49,2.49-.09,1.74-.93,2.66-2.49,2.75h-18.55v5.3h26.27c1.56.06,2.37.95,2.49,2.75-.09,1.56-.93,2.37-2.49,2.49h-57.27c-1.59-.09-2.43-.93-2.49-2.49.06-1.79.87-2.72,2.49-2.75h8.85v-9.14c.09-1.79,1.01-2.72,2.75-2.75,1.74.06,2.66.95,2.75,2.75v9.14h11.11v-16.64h-23.29c-1.56-.09-2.37-.93-2.49-2.49.09-1.74.93-2.66,2.49-2.75h51.48v.03Zm-43.41-16.29v-4.46h-5.24c-.95,0-1.42.46-1.42,1.42v1.62c0,.95.46,1.42,1.42,1.42h5.24Zm10.76,0c.95,0,1.42-.46,1.42-1.42v-1.62c0-.95-.46-1.42-1.42-1.42h-5.53v4.46h5.53Zm14.93-19.97c1.74.09,2.66,1.01,2.75,2.75-.06.75-.09,1.5-.14,2.26h18.69c1.56.06,2.37.87,2.49,2.49-.09,1.74-.93,2.66-2.49,2.78h-3.62c-.43,3.67-1.24,6.8-2.49,9.35-1.13,2.4-2.58,4.57-4.31,6.51.67.52,1.33.98,2.05,1.42,2.23,1.56,5.01,2.81,8.36,3.76,1.85.38,2.75,1.48,2.75,3.33-.23,1.27-1.33,2-3.33,2.2-.32,0-.81-.09-1.42-.29-2.08-.61-4.46-1.68-7.15-3.18-1.88-.98-3.65-2.14-5.24-3.47-2.75,2.11-5.96,4.05-9.69,5.82-.9.2-1.62.29-2.2.29-1.5-.32-2.43-1.16-2.75-2.49,0-1.65.84-2.75,2.49-3.33,3.07-1.33,5.7-2.78,7.93-4.4-1.56-1.97-2.89-4.2-3.96-6.66-.32.46-.64.93-.93,1.33-.75.52-1.59.81-2.49.84-1.5-.38-2.43-1.3-2.75-2.75.06-.9.32-1.62.78-2.2,1.36-1.85,2.37-3.91,2.98-6.22.52-1.88.84-4.34.93-7.35.17-1.74,1.1-2.66,2.75-2.75v-.03Zm1.71,11.6c.23.32.41.69.49,1.13.84,3.5,2.31,6.6,4.4,9.35.09.06.14.09.14.14,1.71-1.74,3.04-3.73,4.02-5.96.84-1.85,1.39-3.85,1.62-6.02h-10.42c-.09.46-.2.93-.29,1.33l.03.03Z" style="fill:#231815; stroke:#231815; stroke-miterlimit:10; stroke-width:1.04px;"></path>
  <path d="m695.53,58.65c1.59.06,2.46.95,2.55,2.75-.09,1.56-.95,2.37-2.55,2.49h-4.4v19.04h4.11c1.59.09,2.46,1.04,2.55,2.84-.09,1.56-.95,2.37-2.55,2.49h-4.11v20.89c1.22-.81,2.43-1.68,3.62-2.63.61-.52,1.24-.81,1.91-.84,1.65.06,2.58.87,2.75,2.49,0,1.19-.46,2.2-1.33,3.04-2.03,1.65-4.37,3.18-7,4.6-2.69,1.56-5.7,2.98-9.06,4.25-.95.38-1.68.58-2.2.58-1.56-.2-2.4-1.01-2.55-2.49.09-1.65.84-2.66,2.26-3.04,2.4-1.1,4.43-2.03,6.08-2.84v-23.99h-5.04c-1.56-.09-2.37-.93-2.49-2.49.09-1.79.93-2.75,2.49-2.84h5.04v-19.04h-5.82c-1.59-.09-2.46-.93-2.55-2.49.09-1.79.95-2.72,2.55-2.75h15.71l.03-.03Zm10.82,0h27.61c3.73,0,5.58,1.85,5.58,5.53v21.59c0,3.67-1.85,5.53-5.58,5.53h-11.31v7.44h14.38c1.59.09,2.46,1.01,2.55,2.78-.09,1.56-.95,2.37-2.55,2.49h-14.38v10.56h16.64c1.56.06,2.37.95,2.49,2.75-.09,1.56-.93,2.37-2.49,2.49h-38.23c-1.56-.09-2.37-.93-2.49-2.49.09-1.79.93-2.72,2.49-2.75h16.06v-10.56h-14.09c-1.59-.09-2.43-.93-2.49-2.49.06-1.74.87-2.66,2.49-2.78h14.09v-7.44h-10.76c-3.67,0-5.53-1.85-5.53-5.53v-21.59c0-3.67,1.85-5.53,5.53-5.53h0Zm0,14.38h10.76v-9.14h-9.14c-1.1,0-1.62.55-1.62,1.62v7.52Zm10.76,12.96v-7.73h-10.76v6.08c0,1.1.55,1.62,1.62,1.62h9.14v.03Zm5.53-22.08v9.14h11.31v-7.49c0-1.1-.55-1.62-1.62-1.62h-9.69v-.03Zm9.69,22.08c1.1,0,1.62-.55,1.62-1.62v-6.08h-11.31v7.73h9.69v-.03Z" style="fill:#231815; stroke:#231815; stroke-miterlimit:10; stroke-width:1.04px;"></path>
  <path d="m780.49,80.17c2.08,0,4.02.84,5.82,2.49,1.65,1.71,2.49,3.65,2.49,5.87s-.84,4.2-2.49,5.82c-1.59,1.65-3.53,2.49-5.82,2.49s-4.28-.84-5.87-2.49c-1.65-1.59-2.49-3.53-2.49-5.82s.84-4.31,2.49-5.87c1.65-1.65,3.62-2.49,5.87-2.49Z" style="fill:#231815; stroke:#231815; stroke-miterlimit:10; stroke-width:1.04px;"></path>
  <path d="m880.87,59.43c1.74.09,2.66,1.01,2.75,2.75-.09,1.74-1.01,2.69-2.75,2.84h-22.02s-.09.32-.14.49c-1.65,2.69-3.3,5.18-4.95,7.49v45.08c-.14,1.88-1.16,2.89-3.04,3.04-1.94-.14-2.95-1.16-3.04-3.04v-37.39c-1.42,1.59-2.81,3.07-4.17,4.4-5.38,5.18-11.92,10.3-19.62,15.31-.95.32-1.85.49-2.75.49-1.33-.46-2.26-1.3-2.75-2.49,0-1.27.43-2.29,1.33-3.04,4.28-2.75,8.1-5.44,11.46-8.13,5.09-3.96,9.03-7.47,11.75-10.48,2.6-3.01,5.5-6.94,8.71-11.75h-29.95c-1.79-.14-2.75-1.1-2.84-2.84.09-1.74,1.04-2.66,2.84-2.75h59.18Zm-21.88,17.71c.95,0,1.85.2,2.75.58,4.77,3.53,8.71,6.68,11.84,9.4,3.24,3.01,6.71,6.6,10.33,10.76.17.75.29,1.5.29,2.26-.23,1.65-1.16,2.58-2.75,2.78-1.22,0-2.17-.29-2.84-.84-3.39-3.91-6.68-7.32-9.84-10.19-3.01-2.78-6.92-5.93-11.69-9.4-.58-1.1-.84-2-.84-2.75.32-1.36,1.24-2.23,2.75-2.55v-.06Z" style="fill:#231815; stroke:#231815; stroke-miterlimit:10; stroke-width:1.04px;"></path>
  <path d="m894.67,70.54v-8.36c0-3.67,1.85-5.53,5.53-5.53h43.69c3.67,0,5.53,1.85,5.53,5.53v48.7c0,6.08-3.04,9.14-9.14,9.14-2.37,0-4.95-.38-7.73-1.13-1.27-.43-2-1.33-2.2-2.75.2-1.65,1.22-2.58,3.04-2.75.06,0,.23,0,.58.06,2.6.69,4.69,1.07,6.31,1.07,2.4,0,3.62-1.22,3.62-3.62v-12.18h-19.04v18.84c-.14,1.74-1.07,2.66-2.75,2.75-1.79-.09-2.72-1.01-2.75-2.75v-18.84h-19.33c-.2,2.63-.55,5.3-1.07,7.93-.75,4.05-2.26,8.13-4.54,12.24-.9.95-1.74,1.42-2.49,1.42-1.74-.29-2.75-1.22-3.04-2.75,0-.95.26-1.77.78-2.49,1.85-3.07,3.1-6.08,3.76-9.06.84-3.67,1.27-7.76,1.27-12.24v-23.24h-.03Zm5.53,4.4h19.13v-12.96h-17.48c-1.1,0-1.62.55-1.62,1.62v11.31l-.03.03Zm0,18.55h19.13v-13.31h-19.13v13.31h0Zm24.63-31.51v12.96h19.04v-11.31c0-1.1-.55-1.62-1.62-1.62h-17.42v-.03Zm0,18.2v13.31h19.04v-13.31h-19.04Z" style="fill:#231815; stroke:#231815; stroke-miterlimit:10; stroke-width:1.04px;"></path>
  <path d="m967.68,86.83h17.42c3.67,0,5.53,1.85,5.53,5.53v21.59c0,3.67-1.85,5.53-5.53,5.53h-17.42c-3.67,0-5.53-1.85-5.53-5.53v-21.59c0-3.67,1.85-5.53,5.53-5.53Zm15.51,27.4c1.27,0,1.91-.64,1.91-1.91v-18.26c0-1.33-.64-2-1.91-2h-13.6c-1.27,0-1.91.67-1.91,2v18.26c0,1.27.64,1.91,1.91,1.91h13.6Zm-8.28-56.72h35.97c3.67,0,5.53,1.85,5.53,5.53v13.89c0,3.67-1.85,5.53-5.53,5.53h-35.97c-3.67,0-5.53-1.85-5.53-5.53v-13.89c0-3.67,1.85-5.53,5.53-5.53Zm33.97,19.62c1.33,0,1.97-.64,1.97-1.91v-10.48c0-1.33-.67-2-1.97-2h-32.06c-1.27,0-1.91.67-1.91,2v10.48c0,1.27.64,1.91,1.91,1.91h32.06Zm-8.85,9.69h18.26c3.67,0,5.53,1.85,5.53,5.53v21.59c0,3.67-1.85,5.53-5.53,5.53h-18.26c-3.67,0-5.53-1.85-5.53-5.53v-21.59c0-3.67,1.85-5.53,5.53-5.53Zm16.35,27.4c1.27,0,1.91-.64,1.91-1.91v-18.26c0-1.33-.64-2-1.91-2h-14.38c-1.33,0-2,.67-2,2v18.26c0,1.27.67,1.91,2,1.91h14.38Z" style="fill:#231815; stroke:#231815; stroke-miterlimit:10; stroke-width:1.04px;"></path>
  <path d="m1039.88,57.81h47.57c4.05,0,6.08,2.03,6.08,6.08v49.19c0,4.05-2.03,6.08-6.08,6.08h-47.57c-4.05,0-6.08-2.03-6.08-6.08v-49.19c0-4.05,2.03-6.08,6.08-6.08Zm45.86,56.14c1.45,0,2.2-.72,2.2-2.2v-46.5c0-1.45-.72-2.2-2.2-2.2h-44.24c-1.48,0-2.2.72-2.2,2.2v46.5c0,1.48.72,2.2,2.2,2.2h44.24Zm-34.26-42.62h24.36c3.3,0,4.95,1.68,4.95,5.03v22.95c0,3.3-1.65,4.95-4.95,4.95h-24.36c-3.36,0-5.03-1.65-5.03-4.95v-22.95c0-3.36,1.68-5.03,5.03-5.03Zm22.08,27.69c1.13,0,1.71-.55,1.71-1.62v-19.13c0-1.1-.58-1.62-1.71-1.62h-19.91c-1.1,0-1.62.55-1.62,1.62v19.13c0,1.1.55,1.62,1.62,1.62h19.91Z" style="fill:#231815; stroke:#231815; stroke-miterlimit:10; stroke-width:1.04px;"></path>
  <path d="m1108.69,60.58c1.74.06,2.66.95,2.75,2.75v40.48c1.22-.29,2.23-.55,2.98-.78,2.08-.61,4.02-1.33,5.87-2.11.58-.43,1.13-.69,1.71-.78v-41.21c.06-1.79.95-2.75,2.75-2.84,1.74.09,2.66,1.04,2.78,2.84v60.25c-.09,1.74-1.01,2.66-2.78,2.75-1.74-.09-2.66-1.01-2.75-2.75v-12.88c-1.79.67-3.76,1.3-5.93,1.91-2.92.9-6.22,1.71-9.84,2.4-.95.38-1.68.58-2.2.58-1.56-.2-2.37-1.01-2.49-2.49.06-1.65.78-2.66,2.2-3.04.81-.2,1.53-.35,2.2-.49v-41.84c.09-1.79,1.01-2.72,2.75-2.75h0Zm25.49-3.04h26.27c2.6,0,3.91,1.3,3.91,3.91,0,1.71-.55,6.02-1.62,12.96-1.5,9.03-3.44,16.12-5.82,21.3-1.04,2.52-2.23,4.83-3.53,7,2.69,3.59,6.6,7.61,11.75,12.1,1.33.52,2.08,1.53,2.26,3.04-.23,1.45-1.16,2.29-2.75,2.49-.43,0-1.01-.32-1.77-.98-4.63-3.5-8.77-7.61-12.38-12.38-.81,1.04-1.62,2.03-2.49,2.98-3.3,4.11-7.9,7.99-13.8,11.6-.32.29-.61.43-.84.43-2.11-.09-3.24-1.01-3.33-2.75.09-.95.58-1.85,1.42-2.75,5.32-3.21,9.49-6.57,12.47-10.04,1.19-1.33,2.26-2.69,3.24-4.11-2.63-4.02-4.95-8.48-6.94-13.37-2.17-5.96-3.91-12.24-5.24-18.9-.32-.84-.49-1.68-.49-2.49.14-1.56,1.07-2.37,2.75-2.49,1.04,0,1.97.55,2.75,1.62,1.22,7.12,2.84,13.46,4.8,18.98,1.36,4.11,3.13,8.04,5.24,11.84.75-1.42,1.42-2.84,1.97-4.25,2.31-5.32,4.11-11.63,5.38-18.9.9-5.3,1.33-9.14,1.33-11.55h-24.57c-1.59-.09-2.43-.93-2.49-2.49.06-1.71.87-2.63,2.49-2.75l.03-.06Z" style="fill:#231815; stroke:#231815; stroke-miterlimit:10; stroke-width:1.04px;"></path>
</svg>
